{"asset":{"version":"2.0","generator":"Blockbench 5.0.3 glTF exporter"},"scenes":[{"nodes":[5],"name":"blockbench_export"}],"scene":0,"nodes":[{"rotation":[0,-0.02181488503456112,0,0.9997620270799091],"translation":[-0.01875,1.59375,0.1875],"name":"dashboard_r","mesh":0},{"rotation":[0,0.02181488503456112,0,0.9997620270799091],"translation":[0.01875,1.59375,0.1875],"name":"dashboard_l","mesh":1},{"name":"pedestal","mesh":2},{"name":"body_higher","mesh":3},{"name":"body_lower","mesh":4},{"name":"Antenna_operating_Podium_Large","children":[0,1,2,3,4]}],"bufferViews":[{"buffer":0,"byteOffset":0,"byteLength":192,"target":34962,"byteStride":12},{"buffer":0,"byteOffset":192,"byteLength":192,"target":34962,"byteStride":12},{"buffer":0,"byteOffset":384,"byteLength":128,"target":34962,"byteStride":8},{"buffer":0,"byteOffset":512,"byteLength":48,"target":34963},{"buffer":0,"byteOffset":560,"byteLength":192,"target":34962,"byteStride":12},{"buffer":0,"byteOffset":752,"byteLength":192,"target":34962,"byteStride":12},{"buffer":0,"byteOffset":944,"byteLength":128,"target":34962,"byteStride":8},{"buffer":0,"byteOffset":1072,"byteLength":48,"target":34963},{"buffer":0,"byteOffset":1120,"byteLength":288,"target":34962,"byteStride":12},{"buffer":0,"byteOffset":1408,"byteLength":288,"target":34962,"byteStride":12},{"buffer":0,"byteOffset":1696,"byteLength":192,"target":34962,"byteStride":8},{"buffer":0,"byteOffset":1888,"byteLength":72,"target":34963},{"buffer":0,"byteOffset":1960,"byteLength":288,"target":34962,"byteStride":12},{"buffer":0,"byteOffset":2248,"byteLength":288,"target":34962,"byteStride":12},{"buffer":0,"byteOffset":2536,"byteLength":192,"target":34962,"byteStride":8},{"buffer":0,"byteOffset":2728,"byteLength":72,"target":34963},{"buffer":0,"byteOffset":2800,"byteLength":288,"target":34962,"byteStride":12},{"buffer":0,"byteOffset":3088,"byteLength":288,"target":34962,"byteStride":12},{"buffer":0,"byteOffset":3376,"byteLength":192,"target":34962,"byteStride":8},{"buffer":0,"byteOffset":3568,"byteLength":72,"target":34963}],"buffers":[{"byteLength":3640,"uri":"data:application/octet-stream;base64,"}],"accessors":[{"bufferView":0,"componentType":5126,"count":16,"max":[0,0.6396862268447876,0.3760831356048584],"min":[-1.5,-0.41195937991142273,-0.5225793719291687],"type":"VEC3"},{"bufferView":1,"componentType":5126,"count":16,"max":[1,0.776900589466095,0.9808272123336792],"min":[-0.9997184872627258,-0.19487954676151276,-0.629623293876648],"type":"VEC3"},{"bufferView":2,"componentType":5126,"count":16,"max":[1,1],"min":[0,0],"type":"VEC2"},{"bufferView":3,"componentType":5123,"count":24,"max":[15],"min":[0],"type":"SCALAR"},{"bufferView":4,"componentType":5126,"count":16,"max":[1.5,0.6396862268447876,0.3760831356048584],"min":[0,-0.41195937991142273,-0.5225793719291687],"type":"VEC3"},{"bufferView":5,"componentType":5126,"count":16,"max":[0.9997184872627258,0.776900589466095,0.9808272123336792],"min":[-1,-0.19487954676151276,-0.629623293876648],"type":"VEC3"},{"bufferView":6,"componentType":5126,"count":16,"max":[1,1],"min":[0,0],"type":"VEC2"},{"bufferView":7,"componentType":5123,"count":24,"max":[15],"min":[0],"type":"SCALAR"},{"bufferView":8,"componentType":5126,"count":24,"max":[1.5625,0.125,0.4375],"min":[-1.5625,0,-0.4375],"type":"VEC3"},{"bufferView":9,"componentType":5126,"count":24,"max":[1,1,1],"min":[-1,-1,-1],"type":"VEC3"},{"bufferView":10,"componentType":5126,"count":24,"max":[0.87109375,0.91015625],"min":[0.171875,0.03125],"type":"VEC2"},{"bufferView":11,"componentType":5123,"count":36,"max":[23],"min":[0],"type":"SCALAR"},{"bufferView":12,"componentType":5126,"count":24,"max":[1.53125,1.5625,0.40625],"min":[-1.53125,0.625,-0.40625],"type":"VEC3"},{"bufferView":13,"componentType":5126,"count":24,"max":[1,1,1],"min":[-1,-1,-1],"type":"VEC3"},{"bufferView":14,"componentType":5126,"count":24,"max":[1,1],"min":[0.234375,0.09375],"type":"VEC2"},{"bufferView":15,"componentType":5123,"count":36,"max":[23],"min":[0],"type":"SCALAR"},{"bufferView":16,"componentType":5126,"count":24,"max":[1.46875,0.625,0.34375],"min":[-1.46875,0,-0.34375],"type":"VEC3"},{"bufferView":17,"componentType":5126,"count":24,"max":[1,1,1],"min":[-1,-1,-1],"type":"VEC3"},{"bufferView":18,"componentType":5126,"count":24,"max":[0.96875,0.765625],"min":[0,0],"type":"VEC2"},{"bufferView":19,"componentType":5123,"count":36,"max":[23],"min":[0],"type":"SCALAR"}],"materials":[{"pbrMetallicRoughness":{"metallicFactor":0,"roughnessFactor":1,"baseColorTexture":{"index":0}},"alphaMode":"MASK","alphaCutoff":0.05,"doubleSided":true},{"pbrMetallicRoughness":{"metallicFactor":0,"roughnessFactor":1,"baseColorTexture":{"index":1}},"alphaMode":"MASK","alphaCutoff":0.05,"doubleSided":true},{"pbrMetallicRoughness":{"metallicFactor":0,"roughnessFactor":1,"baseColorTexture":{"index":2}},"alphaMode":"MASK","alphaCutoff":0.05,"doubleSided":true}],"textures":[{"sampler":0,"source":0,"name":"DiamondMetalOld.png"},{"sampler":1,"source":1,"name":"HardRustMetalOld.png"},{"sampler":2,"source":2,"name":"HoleMetalOld.png"}],"samplers":[{"magFilter":9728,"minFilter":9728,"wrapS":33071,"wrapT":33071},{"magFilter":9728,"minFilter":9728,"wrapS":33071,"wrapT":33071},{"magFilter":9728,"minFilter":9728,"wrapS":33071,"wrapT":33071}],"images":[{"mimeType":"image/png","uri":"data:image/png;base64,"},{"mimeType":"image/png","uri":"data:image/png;base64,"},{"mimeType":"image/png","uri":"data:image/png;base64,"}],"meshes":[{"primitives":[{"mode":4,"attributes":{"POSITION":0,"NORMAL":1,"TEXCOORD_0":2},"indices":3,"material":0}]},{"primitives":[{"mode":4,"attributes":{"POSITION":4,"NORMAL":5,"TEXCOORD_0":6},"indices":7,"material":0}]},{"primitives":[{"mode":4,"attributes":{"POSITION":8,"NORMAL":9,"TEXCOORD_0":10},"indices":11,"material":1}]},{"primitives":[{"mode":4,"attributes":{"POSITION":12,"NORMAL":13,"TEXCOORD_0":14},"indices":15,"material":0}]},{"primitives":[{"mode":4,"attributes":{"POSITION":16,"NORMAL":17,"TEXCOORD_0":18},"indices":19,"material":2}]}]}