{"asset":{"version":"2.0","generator":"Blockbench 5.0.3 glTF exporter"},"scenes":[{"nodes":[3],"name":"blockbench_export"}],"scene":0,"nodes":[{"translation":[-0.375,0,0],"name":"left_switch","mesh":0},{"translation":[0.375,0,0],"name":"right_switch","mesh":1},{"translation":[0,1.375,0],"name":"beveled_cuboid","mesh":2},{"name":"big_switch","children":[0,1,2]}],"bufferViews":[{"buffer":0,"byteOffset":0,"byteLength":1056,"target":34962,"byteStride":12},{"buffer":0,"byteOffset":1056,"byteLength":1056,"target":34962,"byteStride":12},{"buffer":0,"byteOffset":2112,"byteLength":704,"target":34962,"byteStride":8},{"buffer":0,"byteOffset":2816,"byteLength":264,"target":34963},{"buffer":0,"byteOffset":3080,"byteLength":1056,"target":34962,"byteStride":12},{"buffer":0,"byteOffset":4136,"byteLength":1056,"target":34962,"byteStride":12},{"buffer":0,"byteOffset":5192,"byteLength":704,"target":34962,"byteStride":8},{"buffer":0,"byteOffset":5896,"byteLength":264,"target":34963},{"buffer":0,"byteOffset":6160,"byteLength":1152,"target":34962,"byteStride":12},{"buffer":0,"byteOffset":7312,"byteLength":1152,"target":34962,"byteStride":12},{"buffer":0,"byteOffset":8464,"byteLength":768,"target":34962,"byteStride":8},{"buffer":0,"byteOffset":9232,"byteLength":264,"target":34963}],"buffers":[{"byteLength":9496,"uri":"data:application/octet-stream;base64,"}],"accessors":[{"bufferView":0,"componentType":5126,"count":88,"max":[0.3375000059604645,1.5,0.0625],"min":[-0.02500000037252903,0,-0.0625],"type":"VEC3"},{"bufferView":1,"componentType":5126,"count":88,"max":[1,1,1],"min":[-1,-1,-1],"type":"VEC3"},{"bufferView":2,"componentType":5126,"count":88,"max":[0.25,0.25],"min":[0,0],"type":"VEC2"},{"bufferView":3,"componentType":5123,"count":132,"max":[87],"min":[0],"type":"SCALAR"},{"bufferView":4,"componentType":5126,"count":88,"max":[0.02500000037252903,1.5,0.0625],"min":[-0.3375000059604645,0,-0.0625],"type":"VEC3"},{"bufferView":5,"componentType":5126,"count":88,"max":[1,1,1],"min":[-1,-1,-1],"type":"VEC3"},{"bufferView":6,"componentType":5126,"count":88,"max":[0.25,0.25],"min":[0,0],"type":"VEC2"},{"bufferView":7,"componentType":5123,"count":132,"max":[87],"min":[0],"type":"SCALAR"},{"bufferView":8,"componentType":5126,"count":96,"max":[0.4375,0.25,0.125],"min":[-0.4375,0.0625,-0.125],"type":"VEC3"},{"bufferView":9,"componentType":5126,"count":96,"max":[1,1,1],"min":[-1,-1,-1],"type":"VEC3"},{"bufferView":10,"componentType":5126,"count":96,"max":[0.6510406136512756,0.40312498807907104],"min":[0,0],"type":"VEC2"},{"bufferView":11,"componentType":5123,"count":132,"max":[95],"min":[0],"type":"SCALAR"}],"materials":[{"pbrMetallicRoughness":{"metallicFactor":0,"roughnessFactor":1,"baseColorTexture":{"index":0}},"alphaMode":"MASK","alphaCutoff":0.05,"doubleSided":true},{"pbrMetallicRoughness":{"metallicFactor":0,"roughnessFactor":1,"baseColorTexture":{"index":1}},"alphaMode":"MASK","alphaCutoff":0.05,"doubleSided":true}],"textures":[{"sampler":0,"source":0,"name":"RoughBlackMetal.png"},{"sampler":1,"source":1,"name":"TethearedLeather.png"}],"samplers":[{"magFilter":9728,"minFilter":9728,"wrapS":33071,"wrapT":33071},{"magFilter":9728,"minFilter":9728,"wrapS":33071,"wrapT":33071}],"images":[{"mimeType":"image/png","uri":"data:image/png;base64,"},{"mimeType":"image/png","uri":"data:image/png;base64,"}],"meshes":[{"primitives":[{"mode":4,"attributes":{"POSITION":0,"NORMAL":1,"TEXCOORD_0":2},"indices":3,"material":0}]},{"primitives":[{"mode":4,"attributes":{"POSITION":4,"NORMAL":5,"TEXCOORD_0":6},"indices":7,"material":0}]},{"primitives":[{"mode":4,"attributes":{"POSITION":8,"NORMAL":9,"TEXCOORD_0":10},"indices":11,"material":1}]}]}