{"asset":{"version":"2.0","generator":"Blockbench 5.0.3 glTF exporter"},"scenes":[{"nodes":[0,1,2],"name":"blockbench_export"}],"scene":0,"nodes":[{"rotation":[0.25881904510252074,0,0,0.9659258262890683],"translation":[0,-0.3375,0.012499999999999983],"name":"dashboard","mesh":0},{"translation":[0,0.09375000000000003,0],"name":"locker_box_bottom","mesh":1},{"translation":[0.4375,2.7755575615628914e-17,0],"name":"locker_box_top","mesh":2}],"bufferViews":[{"buffer":0,"byteOffset":0,"byteLength":48,"target":34962,"byteStride":12},{"buffer":0,"byteOffset":48,"byteLength":48,"target":34962,"byteStride":12},{"buffer":0,"byteOffset":96,"byteLength":32,"target":34962,"byteStride":8},{"buffer":0,"byteOffset":128,"byteLength":12,"target":34963},{"buffer":0,"byteOffset":140,"byteLength":576,"target":34962,"byteStride":12},{"buffer":0,"byteOffset":716,"byteLength":576,"target":34962,"byteStride":12},{"buffer":0,"byteOffset":1292,"byteLength":384,"target":34962,"byteStride":8},{"buffer":0,"byteOffset":1676,"byteLength":144,"target":34963},{"buffer":0,"byteOffset":1820,"byteLength":528,"target":34962,"byteStride":12},{"buffer":0,"byteOffset":2348,"byteLength":528,"target":34962,"byteStride":12},{"buffer":0,"byteOffset":2876,"byteLength":352,"target":34962,"byteStride":8},{"buffer":0,"byteOffset":3228,"byteLength":132,"target":34963}],"buffers":[{"byteLength":3360,"uri":"data:application/octet-stream;base64,"}],"accessors":[{"bufferView":0,"componentType":5126,"count":4,"max":[0.375,0.6396862268447876,0.5635831356048584],"min":[-0.375,-0.03969437628984451,-0.6245237588882446],"type":"VEC3"},{"bufferView":1,"componentType":5126,"count":4,"max":[0,0.8680975437164307,-0.496393620967865],"min":[0,0.8680975437164307,-0.496393620967865],"type":"VEC3"},{"bufferView":2,"componentType":5126,"count":4,"max":[0.53125,0.9811906218528748],"min":[0.15625,0.296875],"type":"VEC2"},{"bufferView":3,"componentType":5123,"count":6,"max":[3],"min":[0],"type":"SCALAR"},{"bufferView":4,"componentType":5126,"count":48,"max":[0.4375,-0.09375,0.875],"min":[-0.4375,-0.1875,-0.625],"type":"VEC3"},{"bufferView":5,"componentType":5126,"count":48,"max":[1,0,1],"min":[-1,-1,-1],"type":"VEC3"},{"bufferView":6,"componentType":5126,"count":48,"max":[0.71875,0.52734375],"min":[0.28125,0.15156251192092896],"type":"VEC2"},{"bufferView":7,"componentType":5123,"count":72,"max":[47],"min":[0],"type":"SCALAR"},{"bufferView":8,"componentType":5126,"count":44,"max":[0,0.09375,0.875],"min":[-0.875,0,-0.625],"type":"VEC3"},{"bufferView":9,"componentType":5126,"count":44,"max":[1,1,1],"min":[-1,0,-1],"type":"VEC3"},{"bufferView":10,"componentType":5126,"count":44,"max":[0.875,0.671875],"min":[0.28125,0.09375],"type":"VEC2"},{"bufferView":11,"componentType":5123,"count":66,"max":[43],"min":[0],"type":"SCALAR"}],"materials":[{"pbrMetallicRoughness":{"metallicFactor":0,"roughnessFactor":1},"alphaMode":"MASK","alphaCutoff":0.05,"doubleSided":true},{"pbrMetallicRoughness":{"metallicFactor":0,"roughnessFactor":1,"baseColorTexture":{"index":0}},"alphaMode":"MASK","alphaCutoff":0.05,"doubleSided":true}],"meshes":[{"primitives":[{"mode":4,"attributes":{"POSITION":0,"NORMAL":1,"TEXCOORD_0":2},"indices":3,"material":0}]},{"primitives":[{"mode":4,"attributes":{"POSITION":4,"NORMAL":5,"TEXCOORD_0":6},"indices":7,"material":1}]},{"primitives":[{"mode":4,"attributes":{"POSITION":8,"NORMAL":9,"TEXCOORD_0":10},"indices":11,"material":1}]}],"textures":[{"sampler":0,"source":0,"name":"DiamondGrayMetal.png"}],"samplers":[{"magFilter":9728,"minFilter":9728,"wrapS":33071,"wrapT":33071}],"images":[{"mimeType":"image/png","uri":"data:image/png;base64,"}]}