{"asset":{"version":"2.0","generator":"Blockbench 5.0.3 glTF exporter"},"scenes":[{"nodes":[1],"name":"blockbench_export"}],"scene":0,"nodes":[{"name":"circle","mesh":0},{"name":"medium_wave_wheel","children":[0]}],"bufferViews":[{"buffer":0,"byteOffset":0,"byteLength":3924,"target":34962,"byteStride":12},{"buffer":0,"byteOffset":3924,"byteLength":3924,"target":34962,"byteStride":12},{"buffer":0,"byteOffset":7848,"byteLength":2616,"target":34962,"byteStride":8},{"buffer":0,"byteOffset":10464,"byteLength":956,"target":34963}],"buffers":[{"byteLength":11420,"uri":"data:application/octet-stream;base64,"}],"accessors":[{"bufferView":0,"componentType":5126,"count":327,"max":[0.8413915634155273,0.09375,0.71875],"min":[-0.8413915634155273,0,-0.7988393306732178],"type":"VEC3"},{"bufferView":1,"componentType":5126,"count":327,"max":[1,1,1],"min":[-1,-1,-1],"type":"VEC3"},{"bufferView":2,"componentType":5126,"count":327,"max":[1,1],"min":[0,0],"type":"VEC2"},{"bufferView":3,"componentType":5123,"count":477,"max":[326],"min":[0],"type":"SCALAR"}],"materials":[{"pbrMetallicRoughness":{"metallicFactor":0,"roughnessFactor":1,"baseColorTexture":{"index":0}},"alphaMode":"MASK","alphaCutoff":0.05,"doubleSided":true}],"textures":[{"sampler":0,"source":0,"name":"NotCleanMetal.png"}],"samplers":[{"magFilter":9728,"minFilter":9728,"wrapS":33071,"wrapT":33071}],"images":[{"mimeType":"image/png","uri":"data:image/png;base64,"}],"meshes":[{"primitives":[{"mode":4,"attributes":{"POSITION":0,"NORMAL":1,"TEXCOORD_0":2},"indices":3,"material":0}]}]}