{"asset":{"version":"2.0","generator":"Blockbench 5.0.3 glTF exporter"},"scenes":[{"nodes":[2],"name":"blockbench_export"}],"scene":0,"nodes":[{"translation":[0,0.1875,0],"name":"padlock_base","mesh":0},{"translation":[0,1.6875,0],"name":"padlock_loop","mesh":1},{"name":"padlock","children":[0,1]}],"bufferViews":[{"buffer":0,"byteOffset":0,"byteLength":720,"target":34962,"byteStride":12},{"buffer":0,"byteOffset":720,"byteLength":720,"target":34962,"byteStride":12},{"buffer":0,"byteOffset":1440,"byteLength":480,"target":34962,"byteStride":8},{"buffer":0,"byteOffset":1920,"byteLength":144,"target":34963},{"buffer":0,"byteOffset":2064,"byteLength":1440,"target":34962,"byteStride":12},{"buffer":0,"byteOffset":3504,"byteLength":1440,"target":34962,"byteStride":12},{"buffer":0,"byteOffset":4944,"byteLength":960,"target":34962,"byteStride":8},{"buffer":0,"byteOffset":5904,"byteLength":360,"target":34963}],"buffers":[{"byteLength":6264,"uri":"data:application/octet-stream;base64,"}],"accessors":[{"bufferView":0,"componentType":5126,"count":60,"max":[0.44009074568748474,0.8125,0.21875],"min":[-0.44009074568748474,-0.1875,-0.21875],"type":"VEC3"},{"bufferView":1,"componentType":5126,"count":60,"max":[0.7050162553787231,1,1],"min":[-0.7050162553787231,-1,-1],"type":"VEC3"},{"bufferView":2,"componentType":5126,"count":60,"max":[0.9537734389305115,0.3046875],"min":[0,0],"type":"VEC2"},{"bufferView":3,"componentType":5123,"count":72,"max":[59],"min":[0],"type":"SCALAR"},{"bufferView":4,"componentType":5126,"count":120,"max":[0.43507662415504456,0.08110705763101578,0.11888206750154495],"min":[-0.440723717212677,-0.6933529376983643,-0.11888206750154495],"type":"VEC3"},{"bufferView":5,"componentType":5126,"count":120,"max":[0.9959610104560852,0.7963265180587769,0.950983464717865],"min":[-0.9927709698677063,-0.9453757405281067,-0.9509874582290649],"type":"VEC3"},{"bufferView":6,"componentType":5126,"count":120,"max":[1,0.5862183570861816],"min":[0.03125,0],"type":"VEC2"},{"bufferView":7,"componentType":5123,"count":180,"max":[119],"min":[0],"type":"SCALAR"}],"materials":[{"pbrMetallicRoughness":{"metallicFactor":0,"roughnessFactor":1,"baseColorTexture":{"index":0}},"alphaMode":"MASK","alphaCutoff":0.05,"doubleSided":true},{"pbrMetallicRoughness":{"metallicFactor":0,"roughnessFactor":1,"baseColorTexture":{"index":1}},"alphaMode":"MASK","alphaCutoff":0.05,"doubleSided":true}],"textures":[{"sampler":0,"source":0,"name":"BlueScratchedMetal.png"},{"sampler":1,"source":1,"name":"LightGoldScratchedMetal.png"}],"samplers":[{"magFilter":9728,"minFilter":9728,"wrapS":33071,"wrapT":33071},{"magFilter":9728,"minFilter":9728,"wrapS":33071,"wrapT":33071}],"images":[{"mimeType":"image/png","uri":"data:image/png;base64,"},{"mimeType":"image/png","uri":"data:image/png;base64,"}],"meshes":[{"primitives":[{"mode":4,"attributes":{"POSITION":0,"NORMAL":1,"TEXCOORD_0":2},"indices":3,"material":0}]},{"primitives":[{"mode":4,"attributes":{"POSITION":4,"NORMAL":5,"TEXCOORD_0":6},"indices":7,"material":1}]}]}