{"asset":{"version":"2.0","generator":"Blockbench 5.0.3 glTF exporter"},"scenes":[{"nodes":[2],"name":"blockbench_export"}],"scene":0,"nodes":[{"name":"screen_case","mesh":0},{"name":"screen_display","mesh":1},{"name":"panel_display","children":[0,1]}],"bufferViews":[{"buffer":0,"byteOffset":0,"byteLength":1392,"target":34962,"byteStride":12},{"buffer":0,"byteOffset":1392,"byteLength":1392,"target":34962,"byteStride":12},{"buffer":0,"byteOffset":2784,"byteLength":928,"target":34962,"byteStride":8},{"buffer":0,"byteOffset":3712,"byteLength":348,"target":34963},{"buffer":0,"byteOffset":4060,"byteLength":48,"target":34962,"byteStride":12},{"buffer":0,"byteOffset":4108,"byteLength":48,"target":34962,"byteStride":12},{"buffer":0,"byteOffset":4156,"byteLength":32,"target":34962,"byteStride":8},{"buffer":0,"byteOffset":4188,"byteLength":12,"target":34963}],"buffers":[{"byteLength":4200,"uri":"data:application/octet-stream;base64,"}],"accessors":[{"bufferView":0,"componentType":5126,"count":116,"max":[0.875,0.1875,0.5],"min":[-0.875,0,-0.5],"type":"VEC3"},{"bufferView":1,"componentType":5126,"count":116,"max":[1,0.7071067690849304,1],"min":[-1,-1,-1],"type":"VEC3"},{"bufferView":2,"componentType":5126,"count":116,"max":[1,1],"min":[0,0],"type":"VEC2"},{"bufferView":3,"componentType":5123,"count":174,"max":[115],"min":[0],"type":"SCALAR"},{"bufferView":4,"componentType":5126,"count":4,"max":[0.8125,0.125,0.4375],"min":[-0.8125,0.125,-0.4375],"type":"VEC3"},{"bufferView":5,"componentType":5126,"count":4,"max":[0,1,0],"min":[0,1,0],"type":"VEC3"},{"bufferView":6,"componentType":5126,"count":4,"max":[0.2410714328289032,0.234375],"min":[0.008928571827709675,0.015625],"type":"VEC2"},{"bufferView":7,"componentType":5123,"count":6,"max":[3],"min":[0],"type":"SCALAR"}],"materials":[{"pbrMetallicRoughness":{"metallicFactor":0,"roughnessFactor":1,"baseColorTexture":{"index":0}},"alphaMode":"MASK","alphaCutoff":0.05,"doubleSided":true},{"pbrMetallicRoughness":{"metallicFactor":0,"roughnessFactor":1,"baseColorTexture":{"index":1}},"alphaMode":"MASK","alphaCutoff":0.05,"doubleSided":true}],"textures":[{"sampler":0,"source":0,"name":"RoughBlackMetal.png"},{"sampler":1,"source":1,"name":"BlackScreen.png"}],"samplers":[{"magFilter":9728,"minFilter":9728,"wrapS":33071,"wrapT":33071},{"magFilter":9728,"minFilter":9728,"wrapS":33071,"wrapT":33071}],"images":[{"mimeType":"image/png","uri":"data:image/png;base64,"},{"mimeType":"image/png","uri":"data:image/png;base64,"}],"meshes":[{"primitives":[{"mode":4,"attributes":{"POSITION":0,"NORMAL":1,"TEXCOORD_0":2},"indices":3,"material":0}]},{"primitives":[{"mode":4,"attributes":{"POSITION":4,"NORMAL":5,"TEXCOORD_0":6},"indices":7,"material":1}]}]}