{"asset":{"version":"2.0","generator":"Blockbench 5.0.4 glTF exporter"},"scenes":[{"nodes":[8],"name":"blockbench_export"}],"scene":0,"nodes":[{"name":"cuboid","mesh":0},{"rotation":[0,0.7071067811865475,0,0.7071067811865476],"translation":[0.75,0,0.9375],"name":"cuboid","mesh":1},{"rotation":[0,0.7071067811865475,0,0.7071067811865476],"translation":[-0.75,0,0.9375],"name":"cuboid","mesh":2},{"rotation":[-0.5000000000000003,0.49999999999999967,-0.5000000000000002,0.4999999999999998],"translation":[0.75,1.1875,1.225],"name":"cuboid","mesh":3},{"rotation":[-0.5000000000000003,0.49999999999999967,-0.5000000000000002,0.4999999999999998],"translation":[-0.75,1.1875,1.225],"name":"cuboid","mesh":4},{"rotation":[1.0277093725203919e-9,0.7071067576481674,-0.7071068047249268,1.027706288182049e-9],"translation":[0,1.1875,1.225],"name":"cuboid","mesh":5},{"rotation":[-0.17364817766693033,0,0,0.984807753012208],"translation":[0,2.125,1.0625],"name":"beveled_cuboid","mesh":6},{"translation":[0,0.1875,0],"name":"beveled_cuboid","mesh":7},{"name":"kneeler","children":[0,1,2,3,4,5,6,7]}],"bufferViews":[{"buffer":0,"byteOffset":0,"byteLength":288,"target":34962,"byteStride":12},{"buffer":0,"byteOffset":288,"byteLength":288,"target":34962,"byteStride":12},{"buffer":0,"byteOffset":576,"byteLength":192,"target":34962,"byteStride":8},{"buffer":0,"byteOffset":768,"byteLength":72,"target":34963},{"buffer":0,"byteOffset":840,"byteLength":288,"target":34962,"byteStride":12},{"buffer":0,"byteOffset":1128,"byteLength":288,"target":34962,"byteStride":12},{"buffer":0,"byteOffset":1416,"byteLength":192,"target":34962,"byteStride":8},{"buffer":0,"byteOffset":1608,"byteLength":72,"target":34963},{"buffer":0,"byteOffset":1680,"byteLength":288,"target":34962,"byteStride":12},{"buffer":0,"byteOffset":1968,"byteLength":288,"target":34962,"byteStride":12},{"buffer":0,"byteOffset":2256,"byteLength":192,"target":34962,"byteStride":8},{"buffer":0,"byteOffset":2448,"byteLength":72,"target":34963},{"buffer":0,"byteOffset":2520,"byteLength":288,"target":34962,"byteStride":12},{"buffer":0,"byteOffset":2808,"byteLength":288,"target":34962,"byteStride":12},{"buffer":0,"byteOffset":3096,"byteLength":192,"target":34962,"byteStride":8},{"buffer":0,"byteOffset":3288,"byteLength":72,"target":34963},{"buffer":0,"byteOffset":3360,"byteLength":288,"target":34962,"byteStride":12},{"buffer":0,"byteOffset":3648,"byteLength":288,"target":34962,"byteStride":12},{"buffer":0,"byteOffset":3936,"byteLength":192,"target":34962,"byteStride":8},{"buffer":0,"byteOffset":4128,"byteLength":72,"target":34963},{"buffer":0,"byteOffset":4200,"byteLength":288,"target":34962,"byteStride":12},{"buffer":0,"byteOffset":4488,"byteLength":288,"target":34962,"byteStride":12},{"buffer":0,"byteOffset":4776,"byteLength":192,"target":34962,"byteStride":8},{"buffer":0,"byteOffset":4968,"byteLength":72,"target":34963},{"buffer":0,"byteOffset":5040,"byteLength":1152,"target":34962,"byteStride":12},{"buffer":0,"byteOffset":6192,"byteLength":1152,"target":34962,"byteStride":12},{"buffer":0,"byteOffset":7344,"byteLength":768,"target":34962,"byteStride":8},{"buffer":0,"byteOffset":8112,"byteLength":264,"target":34963},{"buffer":0,"byteOffset":8376,"byteLength":1152,"target":34962,"byteStride":12},{"buffer":0,"byteOffset":9528,"byteLength":1152,"target":34962,"byteStride":12},{"buffer":0,"byteOffset":10680,"byteLength":768,"target":34962,"byteStride":8},{"buffer":0,"byteOffset":11448,"byteLength":264,"target":34963}],"buffers":[{"byteLength":11712,"uri":"data:application/octet-stream;base64,"}],"accessors":[{"bufferView":0,"componentType":5126,"count":24,"max":[0.9375,0.375,0.125],"min":[-0.9375,0,-0.125],"type":"VEC3"},{"bufferView":1,"componentType":5126,"count":24,"max":[1,1,1],"min":[-1,-1,-1],"type":"VEC3"},{"bufferView":2,"componentType":5126,"count":24,"max":[0.46875,0.09375],"min":[0,0],"type":"VEC2"},{"bufferView":3,"componentType":5123,"count":36,"max":[23],"min":[0],"type":"SCALAR"},{"bufferView":4,"componentType":5126,"count":24,"max":[0.9375,0.375,0.125],"min":[-0.3125,0,-0.125],"type":"VEC3"},{"bufferView":5,"componentType":5126,"count":24,"max":[1,1,1],"min":[-1,-1,-1],"type":"VEC3"},{"bufferView":6,"componentType":5126,"count":24,"max":[0.3125,0.09375],"min":[0,0],"type":"VEC2"},{"bufferView":7,"componentType":5123,"count":36,"max":[23],"min":[0],"type":"SCALAR"},{"bufferView":8,"componentType":5126,"count":24,"max":[0.9375,0.375,0.125],"min":[-0.3125,0,-0.125],"type":"VEC3"},{"bufferView":9,"componentType":5126,"count":24,"max":[1,1,1],"min":[-1,-1,-1],"type":"VEC3"},{"bufferView":10,"componentType":5126,"count":24,"max":[0.3125,0.09375],"min":[0,0],"type":"VEC2"},{"bufferView":11,"componentType":5123,"count":36,"max":[23],"min":[0],"type":"SCALAR"},{"bufferView":12,"componentType":5126,"count":24,"max":[0.9375,0.375,0.0625],"min":[-1.25,-2.0816681711721685e-16,-0.0625],"type":"VEC3"},{"bufferView":13,"componentType":5126,"count":24,"max":[1,1,1],"min":[-0.8944271802902222,-1,-1],"type":"VEC3"},{"bufferView":14,"componentType":5126,"count":24,"max":[0.546875,0.546875],"min":[0,0],"type":"VEC2"},{"bufferView":15,"componentType":5123,"count":36,"max":[23],"min":[0],"type":"SCALAR"},{"bufferView":16,"componentType":5126,"count":24,"max":[0.9375,0.375,0.0625],"min":[-1.25,-2.0816681711721685e-16,-0.0625],"type":"VEC3"},{"bufferView":17,"componentType":5126,"count":24,"max":[1,1,1],"min":[-0.8944271802902222,-1,-1],"type":"VEC3"},{"bufferView":18,"componentType":5126,"count":24,"max":[0.546875,0.546875],"min":[0,0],"type":"VEC2"},{"bufferView":19,"componentType":5123,"count":36,"max":[23],"min":[0],"type":"SCALAR"},{"bufferView":20,"componentType":5126,"count":24,"max":[1.125,0.36250001192092896,0.0625],"min":[-1.25,0.01249999925494194,-0.0625],"type":"VEC3"},{"bufferView":21,"componentType":5126,"count":24,"max":[0.8814799785614014,1,1],"min":[-0.8814799785614014,-1,-1],"type":"VEC3"},{"bufferView":22,"componentType":5126,"count":24,"max":[0.59375,0.59375],"min":[0,0],"type":"VEC2"},{"bufferView":23,"componentType":5123,"count":36,"max":[23],"min":[0],"type":"SCALAR"},{"bufferView":24,"componentType":5126,"count":96,"max":[1.0625,0.375,0.3125],"min":[-1.0625,0.125,-0.3125],"type":"VEC3"},{"bufferView":25,"componentType":5126,"count":96,"max":[1,1,1],"min":[-1,-1,-1],"type":"VEC3"},{"bufferView":26,"componentType":5126,"count":96,"max":[1,1],"min":[0,0],"type":"VEC2"},{"bufferView":27,"componentType":5123,"count":132,"max":[95],"min":[0],"type":"SCALAR"},{"bufferView":28,"componentType":5126,"count":96,"max":[1.0625,0.375,0.3125],"min":[-1.0625,0.125,-0.3125],"type":"VEC3"},{"bufferView":29,"componentType":5126,"count":96,"max":[1,1,1],"min":[-1,-1,-1],"type":"VEC3"},{"bufferView":30,"componentType":5126,"count":96,"max":[1,1],"min":[0,0],"type":"VEC2"},{"bufferView":31,"componentType":5123,"count":132,"max":[95],"min":[0],"type":"SCALAR"}],"materials":[{"pbrMetallicRoughness":{"metallicFactor":0,"roughnessFactor":1,"baseColorTexture":{"index":0}},"alphaMode":"MASK","alphaCutoff":0.05,"doubleSided":true},{"pbrMetallicRoughness":{"metallicFactor":0,"roughnessFactor":1,"baseColorTexture":{"index":1}},"alphaMode":"MASK","alphaCutoff":0.05,"doubleSided":true}],"textures":[{"sampler":0,"source":0,"name":"BrownDarkWood.png"},{"sampler":1,"source":1,"name":"RedFabric.png"}],"samplers":[{"magFilter":9728,"minFilter":9728,"wrapS":33071,"wrapT":33071},{"magFilter":9728,"minFilter":9728,"wrapS":33071,"wrapT":33071}],"images":[{"mimeType":"image/png","uri":"data:image/png;base64,"},{"mimeType":"image/png","uri":"data:image/png;base64,"}],"meshes":[{"primitives":[{"mode":4,"attributes":{"POSITION":0,"NORMAL":1,"TEXCOORD_0":2},"indices":3,"material":0}]},{"primitives":[{"mode":4,"attributes":{"POSITION":4,"NORMAL":5,"TEXCOORD_0":6},"indices":7,"material":0}]},{"primitives":[{"mode":4,"attributes":{"POSITION":8,"NORMAL":9,"TEXCOORD_0":10},"indices":11,"material":0}]},{"primitives":[{"mode":4,"attributes":{"POSITION":12,"NORMAL":13,"TEXCOORD_0":14},"indices":15,"material":0}]},{"primitives":[{"mode":4,"attributes":{"POSITION":16,"NORMAL":17,"TEXCOORD_0":18},"indices":19,"material":0}]},{"primitives":[{"mode":4,"attributes":{"POSITION":20,"NORMAL":21,"TEXCOORD_0":22},"indices":23,"material":0}]},{"primitives":[{"mode":4,"attributes":{"POSITION":24,"NORMAL":25,"TEXCOORD_0":26},"indices":27,"material":1}]},{"primitives":[{"mode":4,"attributes":{"POSITION":28,"NORMAL":29,"TEXCOORD_0":30},"indices":31,"material":1}]}]}